# xmcd CD database file
#
# Track frame offsets:
#	150
#	14391
#	27539
#	37687
#	50194
#	64072
#	72647
#	87591
#	101477
#	113829
#	120509
#	133673
#	148563
#	157495
#	167301
#	179811
#	192091
#	205164
#
# Disc length: 3070 seconds
#
# Revision: 1
# Processed by: cddbd v1.5.1PL2 Copyright (c) Steve Scherf et al.
# Submitted via: CDex 1.51
#
DISCID=0b0bfc12
DTITLE=Max Greger jr. - Swinging Christmas
DYEAR=2005
DGENRE=Jazz
TTITLE0=Rudolph the Red Nosed Reindeer
TTITLE1=White Christmas
TTITLE2=Frosty the Snowman
TTITLE3=It's the Most Wonderful Time Of The Year
TTITLE4=Sleigh Ride
TTITLE5=Let It Snow
TTITLE6=Marry's Little Boychild
TTITLE7=Christmas Song
TTITLE8=Jingle Bells
TTITLE9=I Saw Mommy Kissing Santa Claus
TTITLE10=Süsser die Glocken and Leise rieselt der Schnee
TTITLE11=Winter Wonderland
TTITLE12=Mele Kalikimaka
TTITLE13=I'll Be Home For Christmas
TTITLE14=Silver Bells
TTITLE15=Santa Claus Is Comin' To Town
TTITLE16=Have Yourself A Merry Little Christmas
TTITLE17=Christmas Tears
EXTD=YEAR: 2005
EXTT0=
EXTT1=
EXTT2=
EXTT3=
EXTT4=
EXTT5=
EXTT6=
EXTT7=
EXTT8=
EXTT9=
EXTT10=
EXTT11=
EXTT12=
EXTT13=
EXTT14=
EXTT15=
EXTT16=
EXTT17=
PLAYORDER=
